Coordinates
version=1
nRows=14
nColumns=24
inDegrees=yes

Units are S.I. units (second, meters, Newtons, ...)
Angles are in degrees.

endheader
time	pelvis_tilt	pelvis_list	pelvis_rotation	pelvis_tx	pelvis_ty	pelvis_tz	hip_flexion_r	hip_adduction_r	hip_rotation_r	knee_angle_r	ankle_angle_r	subtalar_angle_r	mtp_angle_r	hip_flexion_l	hip_adduction_l	hip_rotation_l	knee_angle_l	ankle_angle_l	subtalar_angle_l	mtp_angle_l	lumbar_extension	lumbar_bending	lumbar_rotation
      4.34000000	    -17.70751511	      2.73017418	     -6.04600697	     -1.36479772	     -0.03847572	     -0.28763873	      2.54870199	     -2.07350318	     -0.15168471	    -22.53082991	      7.44277334	     -0.60671728	      1.23092983	     43.71422651	     -3.13924926	    -17.43910881	    -14.18170558	     -2.69045411	      5.85074744	     22.32230438	     19.87864160	     -2.42866592	     -4.30308107
      4.34500000	    -17.62196395	      2.89364820	     -5.93754962	     -1.35706888	     -0.03914398	     -0.28863870	      2.42034184	     -2.45832920	     -0.40025705	    -23.23660098	      6.54457457	     -0.54100572	      2.84607264	     43.75745347	     -2.88865245	    -17.17905707	    -15.04701113	     -3.47624629	      5.14171412	     22.64034451	     19.94473026	     -2.64048039	     -4.40727156
      4.35000000	    -17.56732375	      3.16649707	     -6.00743947	     -1.34933502	     -0.03971776	     -0.28931822	      2.43950198	     -2.89877691	     -0.28440301	    -24.12491620	      5.67279308	     -0.55512416	      3.12630368	     43.80500319	     -2.68563619	    -17.09337421	    -15.95250905	     -4.28845155	      4.44636035	     22.53661603	     20.07398767	     -2.90620985	     -4.19964236
      4.35500000	    -17.53270948	      3.36880774	     -5.91364913	     -1.34161028	     -0.04033245	     -0.29044763	      2.51746328	     -3.34891824	     -0.62048019	    -25.06737485	      4.67907834	     -0.34572441	      4.25193763	     43.90847756	     -2.37626338	    -16.63881611	    -16.88563503	     -5.16407186	      3.40459051	     22.41007900	     20.19721917	     -3.12441089	     -4.22174227
      4.36000000	    -17.49366581	      3.64760504	     -5.88199609	     -1.33379807	     -0.04081746	     -0.29142106	      2.63846229	     -3.84860378	     -0.75296844	    -26.03874039	      3.52221427	     -0.39530303	      5.44619310	     43.98629185	     -2.04922871	    -16.30016679	    -17.82607788	     -6.01724299	      2.38589356	     22.11151087	     20.34601893	     -3.40862727	     -4.14746812
      4.36500000	    -17.46424669	      3.95413872	     -5.72957448	     -1.32582571	     -0.04125927	     -0.29249411	      2.76437072	     -4.39948457	     -1.07647208	    -26.96461315	      2.14413021	     -0.66677957	      7.66183795	     44.07928507	     -1.61373657	    -15.86912386	    -18.80124487	     -6.74750632	      1.58094189	     21.49024952	     20.52661527	     -3.77362988	     -4.18233872
      4.37000000	    -17.40782428	      4.23318039	     -5.72888843	     -1.31806746	     -0.04159233	     -0.29352240	      3.00641228	     -4.91113981	     -1.17676075	    -28.11488226	      0.77535395	     -0.70432420	      8.44395984	     44.13428020	     -1.26790111	    -15.41457798	    -19.75927085	     -7.39507951	      0.46042895	     20.93930569	     20.64509753	     -4.03601977	     -4.05854397
      4.37500000	    -17.39412583	      4.56527965	     -5.56561232	     -1.31003926	     -0.04192494	     -0.29473604	      3.26664733	     -5.51848798	     -1.54748931	    -29.17209667	     -0.88580244	     -1.04476818	     10.76334643	     44.23018447	     -0.75678611	    -14.89294910	    -20.76084263	     -7.80564876	     -0.35553161	     19.66629112	     20.84934140	     -4.41103532	     -4.11692911
      4.38000000	    -17.33242388	      4.87306509	     -5.49772200	     -1.30232075	     -0.04219460	     -0.29591992	      3.61806642	     -6.09187120	     -1.75042516	    -30.43379510	     -2.53462805	     -1.29498704	     12.19411453	     44.28699107	     -0.30764695	    -14.40032358	    -21.75613769	     -8.15579268	     -1.38682821	     18.63127713	     20.94580696	     -4.72187137	     -4.09917456
      4.38500000	    -17.21896669	      5.18177573	     -5.47929671	     -1.29442139	     -0.04229743	     -0.29700391	      3.92340284	     -6.65620083	     -1.86444625	    -31.60941154	     -4.51770540	     -1.88914496	     14.47841998	     44.23469400	      0.11960234	    -13.95062853	    -22.74899776	     -8.11405109	     -2.03976404	     17.05573873	     21.02417303	     -5.02221601	     -3.96826261
      4.39000000	    -17.19240678	      5.52248696	     -5.35873872	     -1.28650515	     -0.04252453	     -0.29828977	      4.38453423	     -7.28773259	     -2.13096736	    -32.93065259	     -6.47020657	     -2.27041249	     15.93925879	     44.26118616	      0.66074150	    -13.46182397	    -23.68022334	     -8.06750219	     -2.87381588	     15.83187608	     21.19011364	     -5.37083803	     -3.96337022
      4.39500000	    -17.10789357	      5.84020165	     -5.30908850	     -1.27875642	     -0.04264615	     -0.29948993	      4.86271835	     -7.87458985	     -2.23603835	    -34.29113679	     -8.57574019	     -2.85290044	     17.66438998	     44.20978943	      1.14063656	    -13.06159075	    -24.61329081	     -7.82170069	     -3.53980120	     14.34041291	     21.26423299	     -5.67725381	     -3.88506350
      4.40000000	    -16.95764429	      6.13771895	     -5.31157946	     -1.27107208	     -0.04266157	     -0.30057374	      5.32610890	     -8.41638958	     -2.21429755	    -35.67597023	    -10.80406106	     -3.57950713	     19.33840109	     44.05306692	      1.56366569	    -12.78226036	    -25.51113953	     -7.38044482	     -4.01459915	     12.92393325	     21.25641357	     -5.96172287	     -3.75683620
      4.40500000	    -16.91836662	      6.45996697	     -5.24728829	     -1.26338593	     -0.04280877	     -0.30177820	      5.96101029	     -8.99250100	     -2.24654465	    -37.15468443	    -13.01679186	     -4.22029895	     20.54974396	     43.97906575	      2.05483787	    -12.49913944	    -26.32787338	     -6.92694214	     -4.55616300	     11.75208920	     21.36399085	     -6.27418029	     -3.69368121
